<?xml version="1.0" standalone="no"?>
<!DOCTYPE svg PUBLIC "-//W3C//DTD SVG 20010904//EN"
 "http://www.w3.org/TR/2001/REC-SVG-20010904/DTD/svg10.dtd">
<svg version="1.0" xmlns="http://www.w3.org/2000/svg"
 width="120.000000pt" height="120.000000pt" viewBox="0 0 120.000000 120.000000"
 preserveAspectRatio="xMidYMid meet">

<g transform="translate(0.000000,120.000000) scale(0.100000,-0.100000)"
fill="#000000" stroke="none">
<path d="M385 1149 c-16 -5 -84 -18 -150 -29 -65 -11 -125 -26 -131 -32 -9 -9
-14 -99 -19 -323 -3 -170 -8 -334 -10 -362 -6 -78 -8 -323 -3 -329 3 -2 135 0
294 5 159 6 386 13 504 17 118 3 218 9 222 13 11 10 70 300 66 326 -2 14 -134
157 -347 374 -366 374 -352 363 -426 340z m45 -76 c0 -19 -29 -181 -36 -202
-5 -16 -184 154 -184 175 0 7 30 17 73 24 39 6 77 13 82 15 30 10 65 4 65 -12z
m-177 -142 c118 -119 123 -130 86 -204 -11 -23 -61 -134 -111 -247 -99 -222
-95 -216 -104 -208 -7 8 -5 733 2 753 3 8 9 15 13 15 4 0 55 -49 114 -109z
m330 -329 c97 -98 177 -185 177 -194 0 -17 11 -12 -332 -149 -142 -56 -261
-99 -265 -95 -11 11 13 87 91 285 40 102 79 204 86 226 19 63 41 105 54 105 6
0 91 -80 189 -178z m157 159 c32 -6 36 -10 42 -51 10 -68 9 -260 -1 -260 -13
0 -295 298 -299 316 -3 13 11 14 110 8 62 -3 129 -9 148 -13z m223 -177 c61
-63 113 -119 115 -124 3 -7 -65 -21 -175 -35 -40 -5 -54 -4 -57 7 -11 34 -16
268 -6 268 5 0 61 -52 123 -116z m137 -211 c0 -35 -36 -173 -47 -184 -10 -10
-173 151 -173 169 0 6 15 14 33 17 17 3 55 9 82 14 93 16 105 14 105 -16z
m-193 -105 c92 -90 120 -124 110 -135 -7 -6 -749 -4 -756 2 -2 3 -2 8 2 11 7
8 529 213 541 214 5 0 51 -42 103 -92z"/>
</g>
</svg>
